/* XPM */
static char *coin[] = {
/* columns rows colors chars-per-pixel */
"64 64 52 1 ",
"  c #4F4B69",
". c #524E6C",
"X c #54516F",
"o c #545170",
"O c #5A5777",
"+ c #5F5B7B",
"@ c #615D7E",
"# c #615E83",
"$ c #656285",
"% c #696587",
"& c #666389",
"* c #6A6689",
"= c #6D6A8D",
"- c #6E6B91",
"; c #726E92",
": c #757195",
"> c #75729A",
", c #79769D",
"< c #7D799E",
"1 c #7A77A1",
"2 c #7F7CA5",
"3 c #827EA5",
"4 c #827FA9",
"5 c #8581A7",
"6 c #8682AA",
"7 c #8A85AC",
"8 c #8C88AF",
"9 c #8986B1",
"0 c #8E8AB5",
"q c #8F8CB8",
"w c #918DB5",
"e c #918EB9",
"r c #9491BC",
"t c #9A95BE",
"y c #9794C0",
"u c #9B96C0",
"i c #9D99C4",
"p c #9F9BC8",
"a c #A09CC7",
"s c #A19DCA",
"d c #A6A1CC",
"f c #A8A3CE",
"g c #A7A3D0",
"h c #AAA6D2",
"j c #AEA9D6",
"k c #AFABD8",
"l c #B0ABD7",
"z c #B3AEDB",
"x c #B5B0DD",
"c c #B7B2E0",
"v c #B9B3E1",
"b c #BEB9E7",
/* pixels */
"xxxxxxxxxxxxxxxxxxxxxxxxxxxxxxxxxxxxxxxxxxxxxxxxxxxxxxxxxxxxxxxx",
"xxxxxxxxxxxxxxxxxxxxxxxxxxxxxxxxxxxxxxxxxxxxxxxxxxxxxxxxxxxxxxxx",
"zxxxxxxxxxxxxxxxxxxxxxxxxxxxxxxxxxxxxxxxxxxxxxxxxxxxxxxxxxxxxxxx",
"xxxxxxxxxzxxxxxxxxxxxxxxxxxxxxxxxxxxxxxxxxxxxxxxxxxxxxxxxxxxxxxx",
"xxxxxxxxxxxxxxxxxxxxxxxxxxxxxxxxxxxxxxxxxxxxxxxxxxxxxxxxxxxxxxxx",
"xxxxxxxxxxxxxzxxxxxxxxxxxxxxxxxxxxxxxxxxxxxxxxxxxxxxxxxxxxxxxxxx",
"xxxxxxxxxxxxxxxxxxxxxxxxxxxxxxxxxxxxxxxxxxxxxxxxxxxxxxxxxxxxxxxx",
"xxxxxxxzxxxxxxcxxbxxbxbxxxxbxxxxxxxbxxxxbxxbxxbxxxxxxxxxxxzxxxxx",
"xxxxxxxxxxxxxxccxxxbxxxxbxxxxxxxxxxxxxbxbxxbxbxxxxxxxxxxxxxxxxxx",
"xxxxxxxxxxxxxxxxxxxxxxxzxxxxxxxxxxxxxxxxxxxxxxxxxxxxxxxxxxxxxxxx",
"zxxxxxxxxxxxzljjhdddhdddddfhlxxxxxxlffdfdddddddflllxxxxxxxxxxxxz",
"xxxxxxxxxxxzkhdur877775757wtflxbbxlftw785775578wtdhlxxxxxxxxxxxx",
"xxxxxxxccczkhsy9<;%@@%%%%%:5tlxbbxjt5:%@@@@%@::38tdhlxxxxxxxxxxx",
"xxxxxxxxxxkhsy91%+X.oXX..X@:wfxbbxdw:@oooOooXo+=<8tshlxxxxxxxxxx",
"xxxxxxxxzkhsr82;@@ooooo..o@;7tdhjdt5:+ooooooXo+@;29rahlxxxxxxxxx",
"xxxxxxzzkhse5>-=%=%*%%*%%%=:<5578555:=%@@=%%@=@;*->5rahllzxxxxxx",
"xxxxxxlkhst5-$+*>57777779751:=%%%%=:25997779974>*#$;5rshkzxxxxxx",
"xxxxcxzhst9>$OO%5tdfffdfgsy7:+X  X+;6ysgdddfddt4*OO#>9yshzxxcxxx",
"xxxxczkdt92=#O+:7dhlxkkxzkp0:+X  X+:8djzllkzzjp9;@O@-29tsjxxxxxx",
"xxxccxhi7,:=&*:5edhjjhhhkhpq2:%$@*:3eahjjjhjjhpy3:***;<8ijxccxxx",
"xxxxcxgr<*$*:58wyyppppppypiyqq9977wwyippappppypye85:%$%<rgxccxxx",
"xxxvvxd8;OO*5tdsiyyyrrrryyyypppgdddiyyyerrrryyyyadt5%O+=8fxvcxxx",
"xxxvxxd7%XX*7dlhpyq00q009yyishkklkhdyyq000q0qqyphjd7*XX%7dxvcxxx",
"xxxvvxd6$XX%7dzjpy00900099yypghhjhdaye09000099ypjzf9*X.%6dxvvxxx",
"xxxvvxd7%.X%8dllpy990009q9yyyppyapiyrqq09qqqqqypjzd8%X.%6dxxxxxx",
"xxxvxxd7%XX%8dlhpyqq0qq0qqq9qyyyrrrqqq0q0qq9q9yphld7%XX%6dxbbxxx",
"xxxvvxd7%XX%5flfyq9900q0y9q99qqqqqqqqqqqqq0099qyfld7*XX%6dxxxxxx",
"xxxvxxd5$.X%8fldy9226qqq9y9yqqqqqq0qqqqqqq09429ydlf8%XX*6dxxxxxx",
"xxxvvxd5% X%8fldq11149qqy9y9qqqqqqqqqeqeee94<,28dldw%..@6dxxbxxx",
"xxxvvxd7%Xo*8dhi61->29qq9y9yq9qq0qqq00000092>;>7thd7%XX%7dxbxxxx",
"xxxvvxdw:@@=5ruw41>1299999999999999999999962,>,6rit5;+@:wdxxxxxx",
"xxxxvxht5:;:357794242222122222222242222222224466765<:;:5thxxbxxx",
"xxxxxxldtw533@;57wr921>>>>>1>1>>>>>>>>->;>>2qrr6<==:358tdlxxxxxx",
"xxxxxxzzldt5@++@7ast4>*&&-&-&-&--------&*=>6tpu8;+@=5thjlxxxxxxx",
"xxxxxxxcczd83+@36tae61;=&&&&&&&&#&&&&&&&=:<5rit6=@@:wfxxxxxxxxxx",
"xxxxxxcccclw33@=3579943,>&##&#&&&#&#&&&-:557875<;=:5tlxbxxxxxxxx",
"xxxxxxxccczft853;=;38we71&###&&#&&&&##&18rw85;;:<58thzxbbxxxxxxx",
"xxxxxxxxcczzlft5=@@=8iae2-&&&&&&&&&&&&-2wai8%@+%5tflzzxxxxxxxxxx",
"xxxxxxxxxxxcvxf8:@@=5tae41>-&&$$#&&&--19waw5;++:8fxxxxxxxxxxxxxx",
"xxxxxxxxxxxcvclt5:=;<6899421>&$##&&-12498855:=:5tlxbxxxxxxxxxxxx",
"xxxxxxxxxxxcvczft853;;;38tw83@$##&&17er8<;;;<5wthxxxxxxzxxxxxxxx",
"xxxxxxxxxxxxcxzzlft5%@@=7taw5:&$#&-4wdt8:@+*5tdjlxxxxxxxxxxxxxxx",
"xxxxxzxxxxxxxxxcxxf8:@@%5tut5<:-->14wat5=+@:wfxxxxxxxxxxxxxxxxxx",
"xxxxxxxxxxzxxxxvbxlt5:=:558885564499785<:;:5ulxbbxxxxxxxxxxxxxxx",
"xxxxxxxxxxxxxxxccczft853:@357tuapir7<;;:<5wtfzxbxxxxxxxxxxxxxxxx",
"xzxxxxxxxxxxxxxxxxzzlft5=@@@5ullkgi6;++=5tfxzzxxxxxxxxxxxxxxxxxx",
"xxxxxxxxxxxxxxxxxxxcczd8:@@@5tdfhdt6=+@:8fzxxxxxxxxxxxxxzxxxxxxx",
"xxxxxxxxxxxxxxxxxxcvvclt5::=55ww996<;=:5tlxxxxxxxxxxxxxxxxxxxxxx",
"xxxxxxxxxxxxxxxxxxxxxvlft855:@;@=@=:35wuhxxxxxxxxxxxxxxxxxxxxxxx",
"xxxxxxxxxxxxxxxxxxxxxxxzlft5;+o.Xo+:5tdllxxxxxxxxxxxxxxxxxxxzxxx",
"xxxxxxxxxxzxxxxxxxxxxxxxxxd8:@oX o@:wdxxxxxxxxxxxxxxxxxxxxxxxxxx",
"xxxxxxxxxxxxxxxxxxxxxxxbbvlu53@@@@:5tjbxxxxxxxxxxxxxxxxxxxxxxxxx",
"xxxxxxzxxxxxxxxxxxxxxxxxxvzft855878tdlxbbxxxxxxxxxxxxxxxxxxxxxxx",
"zxxxxxxxxxxxxzxxxxxxxxxxxxxllfddfffjlxxxxxxxxzxxxxxxxxxxxxxxxxxx",
"xxxxxxxxxzxxxxxxxxxxxxxxxxxxzxxxzxxxxxxxxxxxxxxxxxxxxxxxxxxxxxxx",
"xxxxxxxxxxxxxxxxxxxxxxxxxxxxxvvvvbxxxxxxxxxxxxxxxxxxxxxxxxxxxzxx",
"xxxxxxxxxxxxxxxxxxxxxxxxxxxxvvxvxvvxxxxxxxzxxxxxxxxxxxxxxxxxxxxx",
"xzxxxxxxxxxxxxzxxxxxxxxxxxxxxxxxxxxxxxxxxxxxxxxxxxxxzxxxxxxxxxxx",
"xxxxxxxxxxxxxxxxxxxxxxxxxxxxxxxxxxxxxxxxxxxxxxxxxxxxxxxxxxzxxxxx",
"xxxxxxxxxxxxxxxxxxxxxxxxxxxxxxxxxxxxxxxxxxxxxxxxxxxxxxxxxxxxxxxx",
"xxxxxxxxxxxxxxxxxxxxxxxxxxxxxxxxxxxxxxxxxxxxxxxxxxxxxxxxxxxxxzxx",
"xxxxxxzxxxxxxxxxxxxxxxxxxxxxxxxxxxxxxxxxxxxxxxxxxxxzxxxxxxxxxxxx",
"xxxxxxxxxxzxxxxxxxxxxxxxxxxxxxxxxxxxxxxxxxzxxxxxxxxxxxxxxxxxxxxx",
"xxxxxxxxxxxxxxxxxxxxxxxxxxxxxxxxxxxxxxxxxxxxxxxxxxxxxxxxzxxxxxxx"
};
