/* XPM */
static char *exit[] = {
/* columns rows colors chars-per-pixel */
"64 64 63 1 ",
"  c #3E3B56",
". c #403D59",
"X c #44415E",
"o c #474461",
"O c #494664",
"+ c #4C4966",
"@ c #4E4B6A",
"# c #514E6D",
"$ c #54516F",
"% c #524F70",
"& c #565373",
"* c #595677",
"= c #5A5779",
"- c #5D5A7C",
"; c #605D7F",
": c #5F5C80",
"> c #615E82",
", c #656285",
"< c #686587",
"1 c #666389",
"2 c #6A668B",
"3 c #6C698D",
"4 c #706C8F",
"5 c #6D6A91",
"6 c #716E94",
"7 c #747097",
"8 c #75729A",
"9 c #79769D",
"0 c #7C799F",
"q c #7A77A0",
"w c #7E7BA3",
"e c #817DA5",
"r c #817EA9",
"t c #8480A6",
"y c #8481AB",
"u c #8A86AD",
"i c #8C88AF",
"p c #8784B0",
"a c #8986B1",
"s c #8D8AB5",
"d c #8F8CB8",
"f c #918DB6",
"g c #918EBA",
"h c #9491BD",
"j c #9894BD",
"k c #9794C0",
"l c #9A96C1",
"z c #9D99C4",
"x c #9F9CC8",
"c c #A19CC7",
"v c #A29ECB",
"b c #A5A1CC",
"n c #A8A3CE",
"m c #A7A3D0",
"M c #AAA6D2",
"N c #AEA9D6",
"B c #AFAAD8",
"V c #B0ABD7",
"C c #B3AEDB",
"Z c #B6B1DE",
"A c #B7B2E0",
"S c #BAB5E2",
"D c #BEB9E6",
/* pixels */
"DSNza7>*+oo+&>8rzNZDZZZCZZCZZZZZZZZZZCZZZCZSSZVzu6,*@oo+&>8rxBSD",
"SCMlr6>*@OO@&>8rjMZZZZZZZZZZZZZZZZZZZZZZZZZZZZMje6>&+OO@::6rkMCS",
"VMcfw3:%@++@%:5qsxNBZZZZZZZZZZZZZZZZZZZZZZCZCMcfw3:%@++#%:1wgcMB",
"zjfr6>*%%#%#%=>6tfznNZZZZZZZZZDZZZZDZZZZZZCMncfe6>=%%#%%%::6egkz",
"uyw6>=%%&&&&%%&>6wajbNZZZZZSSZZZZSZZZZZDZZVblaw6>&%%%*%%%%&>6eru",
"663>*@+%:::&%+@&-30uzMZZZZZZZZZCZZZZZZZZZZMca93-%@+#*::*#@#&>367",
",>:=#@+%::>:%@+@&;3tjMCZZMMnnbbbnbnnnMMCZCnjr3-&#+@%=>>:%++%&>>>",
"*&&%#@%*::>:&%@@@&,0hMZNnzjfsiiuuuiifjznVCMh0,*@@@%*:>>:&%#%%&**",
"@@@@%%:::>::::%%@#-7fMNMkar96511<<449waznVnf7=$@#%::>>>>:=&%%#@@",
"oO+%:::111111::%@+&6ibMbsq5,:*%%$$&-,30sxMbf4&@@%::>111>>>:=@+oo",
".oo%::555555511:@O#2ujbfw5:&@+OO+@$$*:3wfcju3$+@:>55555555>:%OXX",
"..X::18q988qq85:$+@;9ift6:%%@+@%$**&&*-6tfi9;@O#:58q999qq86>&OX ",
"..+:5qwwrwrwwwq1*+@=5qw6:%#@+%::133,&#&;70q3=@@*1qwrrrrrrr92&+X ",
".oo:6wrkkwkrkww6=@O%:22>*@+@:::50wq5=#@&;32:$O@=6wrkassadrr5:+X.",
".X+:6wrkrrrkkrw8-@O+&-:*%+@%:15quspq2&$$*--&+O@-8rssarrsdsr8:@X.",
" X+:8wkawwqwrkr8:@oO@%%%##%-15wrhlhu81=**&&+oo@:8wkreqqrrar6:@X.",
".X@:8paw71,7wuy8:@XXo+@#@%:15qpkzbvhu93:&$@XXX@;8rrr61<6euy7;@X.",
".X@:6wrq,**,9yt8:@XXXo@#::15qpskbMMvhaw3-$XXXX@;8rrq,&&,9yy7;#X.",
".X@:8pr8;@@;7tt8:@XXXo@&:15qwpkxmBBNbla9,*@XXX@;qrr8;#@;7yr7;@X.",
".X@:8rw8=++=7ty8:@oXo@%=15qwpskxMCZBMvhu7,-$XX@;8rr8=+O=6yy7;@X.",
".X@;8rr8=++=7wy8:@oo@&-18qwppskxmCZCBMbhu93=@X$;8rr7=+O=6yy7;@X.",
".X@;8wr8-@@-8yy8:@O+%-16qrsssskxmBZZZBMvju03*@@;8rr7-##;7ry7;@X.",
" X@:8ryq,**1qyw8:@O@=15qwsspskkkmBZZZZBMbhu6;@@-7ra9>**,8yy7;@X.",
".X@:7rpw6115wpy8-@+%:5qyypkksskkMCZSSZZBMbd0;@@-6raw6116wut6;@X.",
".X@-7yayw99wpaw6-@@*19ypssgskskkMCZSZZZZCMjt,$@-6papqqqwuay6:@X.",
".X#-6yssapyadap6-@@=5wpssgdssdkkbBZZZZZZZVbt<$@=6wsaappassy6-@X.",
".X@-6ysdsassdsw6;@@=6ysggdssaaskzbMNCZZSDZbu<$@-6pddaaaddsy6-@X.",
".X@-7ysspyypddp7=@@=6yghdgspyrwyshzvMZZSZZbu<$@-6wsspprpssy7;@X ",
".X@;7yspwwqwasp7;@@-7yghdddrw888qeuhbNZDDZbu1%@-7wsawwqwpsy7;#X.",
".X@;7yayq66qwaw6;@@-6ysgdgarq652550uzMZSSZbu3&@=6pppq67qtat7-@X.",
".X@=3rtw8557www5=+@=6ysdgpyw8655157tfbMZZZbu3$@=5www8358wyw6=@X.",
".X@*28q85115qqq5*+@-7tssprwq8866578wudznNZnu<$O&1qqq51158q82*@X.",
".XO&:5655115665:%O+-8papr9889qrrwwwwwwalmBbs3$O#;5655>11585:&OXX",
".XO%:1551111521=#O@:8rar9668wypasapwq6qsxmva3$O#=,25212515::%OX.",
"XXO%:>555555511-%@%:5rpr8678raddddaw867tkxxw3&@$:1555335551:%OX.",
".XO%:5788889886,:%&:58qq888wysdggdsyw8qwpkdq3*&=>57888qq885:&+X.",
".X+=18rrrrrrrr861:-:158qqrrrasdddddaywwwwww61::16qwrryrrwwq1=+X.",
".X+:5rpasppaapyq611>1558ryaasddddsdasaawq8551:15qraaaaaaspw5:OX ",
" X@:6yasayppsspr85111558raddddddddddddawq5511158wadaapyadsp7:@X.",
" X+:7ysprq8rpaar8511588rpsddgddgddddkdspw8551558raapwq9wpaw7:@X.",
".o@:8yar6116wppr85158qryasddddddkdkdddsayww75558rauw7,17way7:@o ",
" X@:7yy81*&,8ypr8556qyassdddddsdaddadddsaayw6158ray8,*&1qpy7:@o ",
".X@:7yy7:@+:7ypr8556wpdkddsapyyywyypasddddpw8558ray7-@@;6pr7:@o ",
".X@:7ry6=OO=6ypr8558wpssdsayw87676qqyasdddaw8158eat4*++=6wy8:@o ",
".X@;7yy6:oO=8rprq118wpddfsu07;;*::,5qpddkaaw8558rpr6=++=5ty8:@XX",
".X@;7yy7:@@:8ypr8558raskffy9;$@XO@&18uddkdsw6558ray6=@@-7yy7-@X ",
".X@;7yy81%:>8rpw8558rdkkjhu7;$X  o@:9uhkkkaw8558eay8,**,qyt7-@X.",
".X@;6yyw51:5qppw855qpkxxbcjt;$X   @,qhxbxxkpq558wayw5,,5wpt7;@X.",
".X+-6ypyw88qyppw756wdvNNZMlt4$X  X$;tzNVVMbfw637waayw88wyay6-@X.",
".X+;6yssiypassaw756wdbVZZNxu;$X  X$4ucNZZBbhe637wadaayyassy6-@X.",
".X@;7ihjkhhkhhsw7239ajnMMbhe;$X  X$;tjbMMbji9247wsgkhhhhkga8;@X.",
".o@,0gcbvvvvvxhy4>;<9tuiiue4*OX  X+*40iiiut82;;4ykxvbvvbbxgw,@X.",
" X$,tzMVVNNNBMxp4=$*;<334<;-$XX  XX+=;4433<-$$;4uxMNNNMCVMjt<#X.",
" X$<tcNCCVVCZBvy4*+O+#$%$$$@+XXXXXXO@#$$&$$+O@*4uxNCZVVCCNbu<#X.",
".X@,ejbnnbbnnbje<@XXX@@@@@@@@@@@+@@@+@@@@@+XXX$;ejbnbbbnnbj0<@X ",
" .+*40uiuuuuiue3=+XX@*=--==-----;----*-=-=&#XX@=3wuiiuuiiuw3=O. ",
" XX$-;;4<4<33;;-+XX@-<44455646664466646644;=#XX@;;;;;44;<<;=@XXX",
"XXX+@$*$$$$$$$$@OX@-40yyyyyyyyyyuuyyytyyutt4=+XX@$;$*$$$$$#++XXX",
"$$$$$$-$$$$$$$$$#$=30sgjkhhhhhghffhghhghjfut4=$@$$***$$$$$$#$@@$",
"4444;4;;<3<4;44;347eijxvxxxxxxxvbcccxxxvccjit444;;4;4;4;4<444444",
"iiiiiiuuuuuifiiuiifhxbMMMMMMMMmMMMMMMMMMnnncjiiijiiiuuuuuuiiiiii",
"bbbbbnbbbbbnnbbbbbmnMNBBBBBBNZNBBBBBBBBBVVVNnnbbnnbbbbbbbbbbbbbb",
"CZZCZCZZCCACCACCZZZZZZZZZZZZZZZZZZZZZZZZZZZZZZAZZZVZZZCZCZZZZZZZ",
"SSDSDSSSSSSDSSSSSSSSAZAAZAAAZZZSZZZAZAZZAAASSSSSSSSSDDZDDZZDDZDZ"
};
