/* XPM */
static char *floor[] = {
/* columns rows colors chars-per-pixel */
"64 64 82 1 ",
"  c #8E8BB7",
". c #8F8CB8",
"X c #908DB9",
"o c #918EBA",
"O c #928EBB",
"+ c #928FBB",
"@ c #938FBB",
"# c #9390BC",
"$ c #9490BD",
"% c #9491BD",
"& c #9794C0",
"* c #9894C0",
"= c #9894C1",
"- c #9895C1",
"; c #9995C2",
": c #9996C2",
"> c #9A96C2",
", c #9A96C3",
"< c #9A97C3",
"1 c #9B97C3",
"2 c #9B97C4",
"3 c #9B98C4",
"4 c #9C98C5",
"5 c #9C99C5",
"6 c #9D99C5",
"7 c #9D9AC6",
"8 c #9E9AC7",
"9 c #9E9BC7",
"0 c #9F9BC7",
"q c #9F9BC8",
"w c #9F9CC8",
"e c #A09CC8",
"r c #A09CC9",
"t c #A09DC9",
"y c #A19DC9",
"u c #A19DCA",
"i c #A29ECB",
"p c #A39FCB",
"a c #A39FCC",
"s c #A4A0CC",
"d c #A4A0CD",
"f c #A5A0CD",
"g c #A5A1CD",
"h c #A5A1CE",
"j c #A6A2CE",
"k c #A6A2CF",
"l c #A7A2CF",
"z c #A7A3D0",
"x c #A8A3D0",
"c c #A8A4D0",
"v c #A8A4D1",
"b c #A9A4D1",
"n c #A9A5D1",
"m c #A9A5D2",
"M c #ABA6D3",
"N c #ABA7D3",
"B c #ABA7D4",
"V c #ACA7D4",
"C c #ACA8D4",
"Z c #ACA8D5",
"A c #ADA8D5",
"S c #AEA9D6",
"D c #AFAAD7",
"F c #AFABD7",
"G c #AFABD8",
"H c #B0ABD8",
"J c #B0ACD8",
"K c #B0ACD9",
"L c #B1ACD9",
"P c #B1ADD9",
"I c #B1ADDA",
"U c #B2ADDA",
"Y c #B2AEDA",
"T c #B3AEDB",
"R c #B4AFDC",
"E c #B5B0DD",
"W c #B6B0DD",
"Q c #B6B0DE",
"! c #B6B1DE",
"~ c #B7B1DF",
"^ c #B7B2DF",
"/ c #B8B3E0",
/* pixels */
"EEEEEEEEEREEEEEEEEEEEEEEEEEEEEEE/EDg-++-gDRE^EEEEEEEEEEEEEEEEEEE",
"EEEEEEEEEEEEEEEEEEEEEEEEEEEEEEE^EETg2%+8gDEEEEEEEEEEEEEEEEEEEEEE",
"EEEEEEEEEEEEEEEEEEEEEEEEEEEEEEE^^ETc8--8xTEE^EEEEEEEEEEEEEEEEEEE",
"EEEEEEEEEEEEEEEEEEEEEEEEEEEEEEEEEETcge8gVTEEEEEEEEEEEEEEEEEEEEEE",
"EEEEEEEEEEEEEEEEEEEEEEEEEEEEEEEEEETHcgcVHTEEEEEEEEEEEEEEEEEEEEEE",
"EEEEEEEEEEEEEEEEEEEEEEEEEEEEEEEEEERRTTHTTEEEEEEEEEEEEEEEEEEEEEEE",
"EEEEEEEEEEEEEEEEEEEEEEEEEEEEEEEEEEEEEEREEEEEEEEEEEEEEEEEEEEEEEEE",
"EEEEEEEEEEEEEEEEEE/EEEEEEEEEEEEEEEEEE^EE^EEEEEEEEEEEEEEEEEEEEEEE",
"EEEEEEEEEEEEEEEEEE^EEEEEEEEEEEEEEEEEEE^EEEEEEEEEEEEEEEEEEEEEEEEE",
"EEEEEEEEEEEEEEEEEREEEEEEEEEEEEEEEEEEEEEEEEEEEEEEEEEEEEEEEEEEEEEE",
"EEEEEEEEEEEEEERTTHGTRREEEEEEEEEEEEEEEEEEEEEEEEEEEEEEEEEEEEEEEEEE",
"EEEEEEEEEEEEEETHVccVTTEE^EEEEEEEEEEEEEEEEEE^E^EEEEEE^E^EEEEEEEEE",
"EEEEEEEEEEEEEETVgi8gVT^EEEEEEEEEEEEEEEEEEEEEEEEEEEE^EE^EEEEEEEEE",
"EEEEEEEEEEE/EETcq--8gTEE^EEEEEEEEEEEEEEEEEEEEERTEEEERREEEEEEEEEE",
"EEEEEEEEEEEEERDg-%@-iVHTREEEEEEEEEEEEEEEEEETTTTTTRERTHTTREEEEEEE",
"EEEEEEEEEEE^EEDg-+++8acVTEEEEEEEEEEEEEEEEERGccgDHRRHNxxcDTEEEEEE",
"EEEEEEEEEEEE/EDg-+ +#-igVTREEEEEEEEEEEEEERTcg88gDTTVg88acTEEEEEE",
"EEEEEEEEEEE/EETg8%   +&icHEEEEEEEEEEEEE^ERTx8--exHHci--8xTE^^EEE",
"EEEEEEEEEEEE^ETc8&++ .+8gTEE/EEEEEEEEEEEEEHx8-%8gNVg8%-8xTREEEEE",
"EEEEEEEEEEE^EETVgi-%. +-gTE/EEEEEEEEEEE^^ETNg888igai888gcTRE^EEE",
"EEEEEEEEEEEEEETTDzi2%++-gDEEEEEEEEEEEEEEEERHccgi8888iagVHREEEEEE",
"EEEEEEEEEEEEEEEETTVi-@%-gDRE^EEEEEEEEEEEEERRTTVg8%%8gcTTREEEEEEE",
"EEEEEEEEEEEEEEEERRHz8--8cTEEEEEEEEEEEEEEEEEEEEHx8--8cDR^EEEEEEEE",
"EEEE^EEEEEEEEEE^^ETVgqigVTE/EEEEEEEEEEEEEEEE^ETVa8qgDTEEEEEEEEEE",
"EEEEEEEEEEEEEEE/E^ETccccTTREEEEEEEEEEEEEEEEE^ERHVgxNHRE/EEEEEEEE",
"EEEEEREEEEEERREEEETTTTTTTREEEEEEEEEEEEEEEEEEEERRTTHTTEEEEEEEEEEE",
"EEERTTTTTREETDTTTREEEEEEEEEEEEEEEEEEEEEEEEEEEEEEREEEEEEEEEEEEEEE",
"EETHcxxcTTTTDcgcDTEE/E/EEEEEEEEEEEEEEEEEEEEEEEE^EE^EEEEEEEEEEEEE",
"EETcgq8gVTTVg88gcTEE/EE^EEEEEEEEEEEEEEEEEEEEEEEEE^E^EEEEEEEEEEEE",
"/ETcq-&8cDHci--8xTE^EEEEEEEEEEEEEEEEEEEEEEEEEEEEEEEEEEEEEEEEEEEE",
"^ETcq--8gcDg8--8xTRE/EEEEEEEEEEEEEEEEEEEEEEEEEEEEEEEEEEEEEEEEEEE",
"EETcg888iggi8-8gcTREEEEEEEEEEEEEEEEEEEEEEEEEEEEEEEEEEEEEEEEEEEEE",
"EETTVxai8838igxVHTE^EEEEEEEEEEEEEEEEEEEEEEEEEEEEEEEEEEEEEEEEEEEE",
"EETRTHNg3&&8aVHTRREEEEEEEEEEEEEEEEEEEEEEEEEEEEEEEEEEEEEEEEEEEEEE",
"EEEEEEHx8--8zHE^EEEEEEEEEEEEEEEEEEEEEEEEEEEEEEEEEEEEEEEEEEEEEEEE",
"EEE^^ETVa88gNTE^^EEEEEEEEEEEE^E^EEEEEEEEEEEEEEEEEEEEEEEEEEEEEEEE",
"EEEE^^RHNxxNHRE^EEEEEEEEEEEEE^EEEEEEEEEEEEEEEEEEEEEEEEEEEEEEEREE",
"EEEEEERTTHGTTREEEEEEEEEEEEEEEEEEEEEEEEEEEEEEEEEEEEEEEEEEEEEEEEEE",
"EEEEEEEERERREEEEEEEEEEEEEEERTHHTREEEEEEEEEEEEEEEEEEEEEEREEEEEEEE",
"EEEEEEEEE^^E^EEEEEEEEEEE^ERHVccNHTEEEEEEEEEEEEEEEEEEEEEEEEEEEEEE",
"EEEEEEEE^E^EEEEEEEEEEEE^^ETDaeeaNTREEEEEEEEEEEEEEEEEEEEEEEEEEEEE",
"EEEEEEEEEEEEEEEEEEEEEEEEERHx8--exHEE^EEEEEEEEEEEEEEEEEEEEEEEEEEE",
"EEEEEEEEEEEEEEEEEEEEERERTGNi-+@3gHE^EEEEEEEEEEEEEEEEEEEEEEEEEEEE",
"EEEEEEEEEEEE^E^EEEE^ERTTDxa2%++-gHE^/EEEEEEEEEEEE^^EEEEEEE^EEEEE",
"EEEEEEEEEEEE^EEEEEEEEETVge-@+ +-gHE^EEEEEEEEEEEEE^^EEEEEE^EEEEEE",
"EEEEEEEEEEEEEEEREEE^^ETce-%+ X+8gHE^^EEEEEEEEEEEEEEEEEEEEEEREEEE",
"EEEEEEEEEERTTHTTRRE^^EGg8@   +-ecHREEEEEEEEEEEETHTTTRRRRTHHTTREE",
"EEEEEEEEEETGVccVHRE^^EHg-+ +%-egDTEEEEEEEEEEEERGccccHTRHVcxNGRE^",
"EEEEEEEE^EHNgeegDTE^/EGg-+++3acDHRE^EEEEEEE^ERTcg8egDTTVgeeaNTRE",
"EEEEEEEE^ETc8--8xHR^^EHg8@+-iVHTREEEEEEEEEEEERTxe--ecHDxe--8xHE^",
"EEEEEEE^EEHg2+@-iNHTERHx8&-8xHEEEEEEEEEEEEE^^EHxe%&8gNNg8&-exHE^",
"EEEEEEE^^EGg-++%3acDTTTNgeigVT^^^EEEEEEEEEEEEETNg888iagi838gNTE^",
"EEEEEEEE^EHg2+ +%-igVTTTVccVHR^^EEEEEEEEEEEEEERHNxgi8888igcVHTEE",
"EEEEEEE^^RHz8+   +-ecHTETTHTTREEEEEEEEEEEEEEEERRTHVg8%%8aVHTRREE",
"EEEEEEEEEEHce&+   %8zHREREEEEEEEEEEEEEEEEEEEEEEEEETc8--8xHE^EEEE",
"EEEEEEE^EEHDgi-%+ +-gGE^^EE^EEEEE^^EEEEEE^E^^EE^^ETca8eaVTE^^EEE",
"EEEEEEEEEETTVca3%++-gHE^^^E^EEEEE^EEEEEEE^EE^EEE^ERHNxxNHTE^EEEE",
"EEEEEEEEEERRTHNi-++2gHE^^EEEEEEEEERREEEERREEEEEEEERRTGTTTREEEEEE",
"EEEEEEEEEEE^^EHx8--8cHR^EEEEEERTTHTTTRERTGHTTREEEEEERREEEEEEEEEE",
"EEEEEEEEEEE^^ETVgeigVTEEEEEEEETGNxzNHTTHVxxNHTEEEEEEEEE^EEEEEEEE",
"EEEEEEEEEEE^E^RHVccNHTEEEEE^EETNaeegVTHNgeeaNTE^EEEE^E^EEEEEEEEE",
"EEEEEEEEEEEEEERTHTTTTEEEEEE^^EHx8--8cTHce-&8xHEE^EEEEEEEEEEEEEEE",
"EEEEEEEEEEEEEEEEEREEEEEEEEEEEEHg2%%8zGHx8%+8gHE^^EEEEEEEEEEEEEEE",
"EEEEEEEEEEEEEEEE^^^^EEEEEEE^^RHg-++3gGHg-++-gGE^EEEEEEEEEEEEEEEE"
};
