/* XPM */
static char *floor[] = {
/* columns rows colors chars-per-pixel */
"16 16 2 1 ",
"  c #8E8BB7",
". c #B5B0DD",
/* pixels */
"......... ......",
"................",
"................",
".... ...........",
"....  ..... . ..",
"..... ...... ...",
"................",
". . ............",
".. .............",
"................",
"....... ........",
"......  ........",
"... .. ..... . .",
"...  ........ ..",
".... ...........",
"........ . ....."
};
