/* XPM */
static char *player[] = {
/* columns rows colors chars-per-pixel */
"64 64 58 1 ",
"  c #45425F",
". c #464360",
"X c #494664",
"o c #4C4967",
"O c #4D4A69",
"+ c #514E6D",
"@ c #54506F",
"# c #524F70",
"$ c #565374",
"% c #595676",
"& c #5A5779",
"* c #5D5A7C",
"= c #605D7E",
"- c #5F5C80",
"; c #615E82",
": c #656185",
"> c #696587",
", c #666389",
"< c #69668B",
"1 c #6C698D",
"2 c #706C8F",
"3 c #6E6A91",
"4 c #716E95",
"5 c #757195",
"6 c #75729A",
"7 c #79769D",
"8 c #7D799F",
"9 c #7A77A0",
"0 c #7D7AA3",
"q c #817DA5",
"w c #817EA9",
"e c #8582AB",
"r c #8A86AC",
"t c #8C88AF",
"y c #8A86B1",
"u c #8D8AB4",
"i c #8F8CB8",
"p c #918DB6",
"a c #918EBA",
"s c #9591BC",
"d c #9894BE",
"f c #9794C1",
"g c #9996C1",
"h c #9D99C4",
"j c #9E9BC8",
"k c #A19CC7",
"l c #A29ECA",
"z c #A6A1CC",
"x c #A8A3CF",
"c c #ABA6D2",
"v c #AEA9D6",
"b c #AFAAD8",
"n c #B0ABD7",
"m c #B3AEDB",
"M c #B5B0DD",
"N c #B7B2E0",
"B c #B9B4E1",
"V c #C1BCEB",
/* pixels */
"MMMMMMMMMMmMMMMMMMMMMMMMMMMMMMMMMMMMMMMMMMMMMMMMMMMMMMMMMMMMMMMm",
"MMMmMMMMMmMMMMMMMMMMMMMMMMMMMMMMMMMMMMMMMMMMMMMMMMMMMMMMMMMMMMMM",
"MMMMmMMMMMMMMMMMMMMMMMMMMMMMMMMMMMMMMMMMMMMMMMMMMMMMMMMMMMMMMMMM",
"MMMMMMMMMMMMMMMMMMMMMMVMMVMMBBBMMBBMBMBBMBBBMVMMMMMMMMMMMMmMMMMM",
"MMMmMMMMMMMMmMMMMMMVMMVMMVBBBBBBBBBBBBBBVMMMBMBMMMMMMMMMMmMMMMMM",
"MmMMMMMMMMMMMMMMMMMMMmmMmmmMMMmmmMMMMMMMMMMMMMMMMMMMMMMMMMMMmMMM",
"MMMMMMMMMMMMMMmmnccxxxzzlzzzzzzzzzzzzzzzllxlxccvnMMMMMMMMMMMMmMM",
"MMMMMMMmMMMMBMmclkdpttrrrrrrrrrrrrrrrtrrrttppdklcMMMMMMMMMMMMMMM",
"MMMMMMMMMMMBBMmzdyq642>>1>2>1>11>2>2<31111247qyglmMBMMMMMMMMMMMM",
"MMMMMMMMMMMMMMchy74;=$$+@+@@@+++@@@@##++++$=;37ykcMMMMMMMMMMMMmM",
"mMMMMMMMMMMmmckp91;&+++XXXXOOO+oOXXXXXXXXXX+#;19pkxnMMMMMMMmMMMM",
"MMMMMMMMMMmczgpq1;$$%&%$+OO+$%&$@OOXooOOooo+##;3qpkxcmMMMMMMMMMM",
"MMMMMMMMMmnxdy01;##&;14,=$&=,33<==$$%$$&$$##++#;2qrslnMMMMMMMMmM",
"MMMMMMMMBmcgy71=#O+*47q72>;46wq62>;;;;;;;;;$+o+#=<7ykcMMMMMMMMMM",
"MMmMMMMMBmcdq3*$OO+=4qew9667wwwq41>,;<;,,,;&+OOO$=3qdxMMMMMMMMMM",
"MMMMMMMBBMxa7;$+O+#;47weeeewwwq641,;<;<<<,;;$#+O+%;7pxMVMMMmMMMM",
"MMMMMMMBBmzp5=@O@@*;349wpsspw96333,,,;,;,,,;-&%#O+&4pzMBBMMMMMMM",
"MMMMmMMMBMzt2@oO$=;:,36wsllsw63<;,,;,,<;,,,,;;;$OO$4txMBBMMMMMMm",
"mMMMMMMBBMzr>@XO$;>,<16wallfw63,,,,3444433<<<,;$oX@1tlMBNMMMMMMM",
"MMMMMMMBBMzr>@XO%=13469eufaie943<<,46qqq96633<;&oX@>rlMBBMMMMMMM",
"MMMMMMMBBMzr>@ O$;<460wwwwwww0963<36wafiww963<;$oX@>rlMBMMMMMMMM",
"MMMMMMMBBMzr2@XO$;360wew6660www0433qikllffw96<;$oX@>rxMBBMMMMmMM",
"MMMMMMMBBmzr>@XO$;<60ww063360ww0646wgbbblff063;$oX@1rxMBBMMMmMMM",
"mMMMMMMMBmzr2@ O$;<690093<,3900999wwlbNMblfw93;$oX@1tlMBBMMMMMMM",
"MMMMMMMBBmzt>@XO$-<366433,,336699qwfxmBBmckpq2;$oX@>rzMBNMMMMMMM",
"MMMMMMMBBMlt1@XO&-<<,33,,,,,<336qwifxbmNMnldw2;$oX@2rlMBBMMMMMMM",
"MMMMMMMBMMzt1@ O-;,,,,,,;-;;,<49wwjfklxbmmcgw5;$oX@>rzMBBMMMMMMM",
"MMmMMMMMBMlt2@ O$-,,,,-----;,39wifjfpuigxncgw5;$oX@2rzMBNMMMMMMm",
"MMMMMMMBBMzt>@OO$-,,,,---O$-<9wihkkpq5qqkccgw5;@oX@>rzMBNMMMMMMM",
"MMMMmMMBMMzt1@ O--,,,,-$#oO-30ihxczp5==5plckw5;$XX@>tlMBBMMMMMmM",
"MmMMMMMBVMzt1@ O$-,<3,,-OXO-6yfznnzw>@@>tlckt5=$XX@2rzMBNMmMMMMM",
"MMMMMMMBMMxt1@XO$-,4663-#.O-9ijbMmzw>OO>tlckw4=@oX@2txMBBMMMMMMM",
"MMNmmmmVBMxt2@Xo$;<69q7;@XO;wfcNNMzq=+O=txvhw5;#oX@1tcNBBNMMMMMM",
"MMmMNmmBBMzr=@Xo$;<6qww3=O@>wjbBBmxw2@oqwlckw4;$oX+1wzMBNNmMMMMM",
"MMMMMmmmmndq>@Xo$;19www7;=;5ixMBVMzpq==qullfw4;$XX+>qhcmmMMMMMMm",
"MMmNMNnvxdrq=+.X$-16wiywq27wgbBBBMcdqq=qpkkfq2;#X o=qwhxvnMNMMMM",
"mMMBBmnkdrq=@X.X$-<6wuiirtpgcbBBBNnxpptpffswq1;@X X$>qwdznmNNMMM",
"NmmNBmvktq>=@XX+$;36wwafkkxcbbMMMMmnxzzkgfpw61;%OXo+&<qwhcMNNMMm",
"MMMBBmxpq2==@@@@;369wupklcnnbbbbnnnnnnczhaawq4<;=$$$%;2qdxMNNMMM",
"MmmBBmctq==@==qq0wwwyiaklcccccclxxxcccxzffpwwwqq52<=&&;qpxMNNMMM",
"MMMBBmxtq@@=qqtpfsfsaaaffjjjjfffhhhkjjjfffwfdddsptqq=%==txMBNMMM",
"MMmBBmzt1%@=qdzncczlgaiiifffffffpdpsffffwfffllxcxztq=@@qwxMBNMMM",
"MmMBBMzw2@@>qzMBBNbzgiwuyyyiyiiippptfwwwwwwjlnmMBMzrqX@=tzMBNMMM",
"MMNBBMzr=@@>tcBVVBmlfww000000iiiippwwww9wwwflvVVVBnt=+XqwxMBBMMM",
"MMMNBMzq>@@>tvBVVVMkiq644469wiwfiiiww66366wilbVVVBxt>@@=qzMBNMMM",
"MMMBBMzr>@@>wlmVNmcfw63;<<49wwfwfwww663<<36wfbmVVMzt>@@>tznBBMMM",
"MMMNBMzt1@%=qdlnclkuq41;,369wwffawiw96<;,,39uglcxkdq=%@=tzMBNMMM",
"MMMBBMxt2=%=2qwtttw943;33660wfwffiiwq663<,34qwtttrq2=@=qtxMBNMMM",
"MMMNBMxpq=%&=>>111>;>;346qwwfwffiifwww0631><>111>>>==%=qqzMNNMMM",
"MMMMNMxdq1=%$$@@@@$=;;;6qwwiwffwiiiifww041;==@@@@@@%%=qqpxMNNMMM",
"MMMNNMchwq1==@+oX.oO=;16qwwifwwwwiwiwiw06<;%OX .o@%==>qtkxMNMMMM",
"MMMMMMnzdtqq52=%o  o$=;66qwwwwwwwwwwwwq641=@o  o%==qqqrpznMMMMMM",
"MMMMMMnczkdpptq1=X o&;<34666666666666663<,;$o.o%2qttddkznnMMMMMM",
"MMMMMMMncccxxzdq;+Xo&;;;<333<33<33,3<3<3<,;%oX+>qpxxxxxnnmMMMMMM",
"MMMMMMMMBMMMMnkq1#XO&;3333<,,--;--;,<3<333;-oX@>rknMNMMMMMMMMMMM",
"MMMMMMMMMBNMmchq;OX+;366643,;-$#$#--,346643-+X+;qdxMNNNNMMMMMMMM",
"MMMMMMMMBMMnclpq=o.+;6wwww61=@oXXo#;<6qwwwq;@Xo=qdkcnMNNMMMMMMMM",
"MMMMMMMMMMmcldw5=OO=2qwipwq2=@X  X#;4qiwpwq1&OO=5wdznnMMMMMMMMMM",
"MMMMMMMMMMnclgtq;==>qtdffstq>=@OO#-;qwffdswq>&=;qwdkcnMMNMMMMMMM",
"MMMMMMMMNMnnlkdwq55qwdkklkdtq222<34qifkllkhwq55qwskznmMMMMMMMMmM",
"MMmMMMMMMMMnvllksupdklxcxclkdptwttushlccxxzksptskkxnnmMMMMMMMMMM",
"MMMMMMmMMMMmMmnxcllxcbbbbbbbcllzlllxcbbbnmnvxxxxcnnmmMMMMMMMMMmM",
"MMMMMMMMMMMMMmMMMMMMMMMMMMMMmMmmNMMmMMNMMmMNMmMMMMMMMMMMMMmMMMMM",
"mMMMMMMmMMMMMMMVNNVBBNNNMNNNNNVMVVNVNNNNNNNBBBBBBBNMMMMmMMMMMMMM"
};
