/* XPM */
static char *wall[] = {
/* columns rows colors chars-per-pixel */
"64 64 198 2 ",
"   c #4C4967",
".  c #4D4A68",
"X  c #4E4B69",
"o  c #4E4B6A",
"O  c #4F4C6A",
"+  c #4F4C6B",
"@  c #504D6B",
"#  c #524F6D",
"$  c #534F6E",
"%  c #54506F",
"&  c #54516F",
"*  c #545170",
"=  c #555272",
"-  c #565372",
";  c #575474",
":  c #5A5778",
">  c #5A5779",
",  c #5B5879",
"<  c #5B587A",
"1  c #5C5979",
"2  c #5D5A7B",
"3  c #5E5B7C",
"4  c #5E5B7D",
"5  c #605D7E",
"6  c #615D7F",
"7  c #615E81",
"8  c #625F81",
"9  c #625F82",
"0  c #636083",
"q  c #656183",
"w  c #656286",
"e  c #696587",
"r  c #676488",
"t  c #686589",
"y  c #6B6789",
"u  c #6A678A",
"i  c #6B6889",
"p  c #6C688A",
"a  c #6C698B",
"s  c #6D698B",
"d  c #6D6A8F",
"f  c #6F6C92",
"g  c #706D92",
"h  c #706D93",
"j  c #706E93",
"k  c #716E94",
"l  c #737093",
"z  c #737096",
"x  c #757299",
"c  c #76739A",
"v  c #7A769D",
"b  c #7A779D",
"n  c #7B779F",
"m  c #7B789F",
"M  c #7C79A1",
"N  c #7F7BA1",
"B  c #7C79A2",
"V  c #7D7AA2",
"C  c #817DA3",
"Z  c #8380AA",
"A  c #8682A8",
"S  c #8481AA",
"D  c #8481AB",
"F  c #8582AC",
"G  c #8582AD",
"H  c #8884AD",
"J  c #8A85AC",
"K  c #8A86AC",
"L  c #8B87AD",
"P  c #8885AE",
"I  c #8985AE",
"U  c #8885AF",
"Y  c #8B87AE",
"T  c #8986B1",
"R  c #8B87B2",
"E  c #8B88B3",
"W  c #8C88B1",
"Q  c #8F8BB2",
"!  c #8D8AB6",
"~  c #8E8BB7",
"^  c #8E8BB8",
"/  c #8E8CB8",
"(  c #8F8CB8",
")  c #8F8CB9",
"_  c #908CB8",
"`  c #908DB9",
"'  c #928EB8",
"]  c #928EB9",
"[  c #938FB9",
"{  c #918EBA",
"}  c #918EBB",
"|  c #928FBB",
" . c #9691BA",
".. c #9390BC",
"X. c #9490BC",
"o. c #9491BD",
"O. c #9794C0",
"+. c #9995C0",
"@. c #9894C1",
"#. c #9895C1",
"$. c #9995C1",
"%. c #9A96C1",
"&. c #9B96C1",
"*. c #9B97C1",
"=. c #9B97C2",
"-. c #9B97C3",
";. c #9C97C2",
":. c #9B98C4",
">. c #9C98C4",
",. c #9C98C5",
"<. c #9C99C5",
"1. c #9D99C5",
"2. c #9E99C4",
"3. c #9D99C6",
"4. c #9D9AC6",
"5. c #9E9AC7",
"6. c #9F9BC7",
"7. c #9F9BC8",
"8. c #9F9CC8",
"9. c #A19CC7",
"0. c #A19DC7",
"q. c #A09CC8",
"w. c #A19DC8",
"e. c #A09CC9",
"r. c #A09DC9",
"t. c #A29DC8",
"y. c #A19ECA",
"u. c #A29ECB",
"i. c #A39FCC",
"p. c #A49FCC",
"a. c #A5A0CB",
"s. c #A5A1CB",
"d. c #A4A0CC",
"f. c #A4A0CD",
"g. c #A5A0CD",
"h. c #A5A1CD",
"j. c #A7A2CD",
"k. c #A5A1CE",
"l. c #A6A2CE",
"z. c #A6A2CF",
"x. c #A7A2CF",
"c. c #A7A3CF",
"v. c #A8A3CD",
"b. c #A7A3D0",
"n. c #A8A3D0",
"m. c #A8A4D0",
"M. c #A9A4D0",
"N. c #A8A4D1",
"B. c #A9A4D1",
"V. c #A9A5D1",
"C. c #AAA5D1",
"Z. c #A9A5D2",
"A. c #AAA5D2",
"S. c #AAA6D3",
"D. c #ABA6D3",
"F. c #ABA7D3",
"G. c #ACA7D3",
"H. c #ABA6D4",
"J. c #ABA7D4",
"K. c #ACA7D4",
"L. c #ACA8D4",
"P. c #ACA8D5",
"I. c #ADA8D5",
"U. c #AEA9D5",
"Y. c #ADA9D6",
"T. c #AFAAD7",
"R. c #B0ABD8",
"E. c #B0ABD9",
"W. c #B0ACD8",
"Q. c #B1ACD8",
"!. c #B0ACD9",
"~. c #B1ACD9",
"^. c #B1ADD9",
"/. c #B1ACDA",
"(. c #B1ADDA",
"). c #B2ADDA",
"_. c #B2AEDA",
"`. c #B2AEDB",
"'. c #B3AEDB",
"]. c #B3AEDC",
"[. c #B3AFDC",
"{. c #B4AFDC",
"}. c #B5B0DD",
"|. c #B6B0DD",
" X c #B5B0DE",
".X c #B6B0DE",
"XX c #B6B1DE",
"oX c #B7B1DE",
"OX c #B7B1DF",
"+X c #B7B2DF",
"@X c #B7B2E0",
"#X c #B8B2E0",
"$X c #B8B3E0",
"%X c #B9B4E1",
"&X c #BAB5E2",
"*X c #BAB5E3",
"=X c #BBB6E3",
"-X c #BBB6E4",
/* pixels */
"}.}.}.}.}.@X@X&X&X&X-X-X-X-X-X-X-X-X-X-X-X-X&X&X&X$X}.}.}.}.}.}.}.}.}.}.}.@X$X&X&X&X-X-X-X-X&X-X-X-X-X-X-X-X-X&X&X}.}.}.}.}.}.}.",
"}.}.}.}.{.{.}.}.{.{.{.{.{.{.{.{.{.{.{.{.{.{.{._.{.{.}.}.}.}.}.}.}.}.}.}.}.}.}.{.}._.}.{.{.{.{.{.}.{.{.{.{.{.{.{.}.}.}.}.}.}.}.}.",
"}.}.}.{._._.T.G.A.j.a.a.a.a.a.a.a.a.a.a.a.a.j.A.A.T._._.{.}.}.}.}.}.}.[._._.T.A.A.j.a.a.a.a.a.a.a.a.a.a.a.a.j.v.T.T.E._.}.}.}.$X",
"&X$X}.[.E.A.j.2. .Q Y J Y Y Y Y Y Y Y Y Y Y Q  .2.j.A._.[.}.&X$X&X$X@X[.E.J.j.2. .Q Y Y Y Y Y Y Y Y Y Y Y Y Q  .;.j.A.E.[.}.$X&X",
"-X&X}._.J.i.O.E N l a y y a a a a a a p y d k N Q O.i.J.E.}.$X-X&X$X}._.J.i.&.T N z a y y a a p a a a a y a z N E &.i.J._.}.@X-X",
"}.{.R.A.u.O.T M y 1 * # # % % % * * % # # * , t b T O.u.J.E.{.}.}.{.E.A.u.o.E m y , * # # # = = % % % # # % 1 y m T O.u.A._.{.}.",
"j.a.9.&.[ Y B f 8 * +   X X + + X X X X   + = 7 f N U [ &.u.a.j.v.j.u.&.[ U N f 8 ; X X X X + X + + X     + * 8 f N U [ &.9.j.j.",
"Y Y A C b z f w 0 4 , : : , , , , , : , : , 7 9 r f k b N A Y Y Y Y A N b k f r 8 2 , : : , , , , , , , , , 4 0 r d z b C A J Y ",
"p y r w 7 2 7 9 r f f f k f f f z f f f k f f w 8 7 2 7 0 y y y y y e q 7 2 2 8 r f f f f k f f f f f f z f f r 8 2 2 8 q e y p ",
"* % # + X X = 8 f B F G G F F F C F F G G F V f 8 * X X + # # = % % # @ X + ; 8 f V F G G Z F Z F F F G G C B f 8 ; + X @ # % % ",
"X + X     X ; w c F ! ) ) ) ! ! ) E ! ) ) ) F c w ; X   X X + + + X X X   + ; 0 c G ! ) ) ! ! ! ! ! ! / ) ! F c w ; +   X X + + ",
", , : : : 2 9 f N T ) ) ) ) ) ) ) ) ) [ ) ) T V f 0 2 : : : : : , , : : : 2 0 f B T ) } [ ) ) ) ) / / O.) ) T N f 0 2 : : , , , ",
"f k h f f z x B F E ) ) ) ) ) ) ) ! ) ) ) ) E F B x f f f f k f f h f f f k x M F E ) ) ) ) ) ) / / / ) ) ) T F B x k f f f f f ",
"Z Z Z Z C F F T T E ) ) ) ) ) ! ) ) ) ! ) ) E E T F Z F F C F F Z Z Z Z Z F F T E E ) ) ) ! ! ) / / / / ) ) ! T T G A Z Z Z Z Z ",
"! ! ! ! ! ! ) ) } } } o.o.} } } } o.o.} } o.} [ ) ) ! ! ! ! ! ! ! ! ! ! ! ) ! ) } } o.o.} } o.} } } O.) } o.} [ ) ) ! ! ! ! ) ! ",
") [ ) ) ) ) [ o.O.:.1.7.2.1.7.2.1.1.2.1.1.1.&.O.o.} ) ) ) ) ) ) [ ) ) ) ) ) [ o.O.:.1.2.1.1.1.1.3.3.3.3.1.1.:.O.o.) ) ) ) ) ) ) ",
") ) ) ! ! ) [ O.2.j.b.b.b.N.b.b.b.j.j.b.b.j.i.2.O.} ) ) ) ! ) ) ! ) ) ) ) ) } O.7.p.n.n.n.j.n.v.b.b.b.b.j.b.i.2.O.} ) ! ) ) ) ) ",
"! ) ) ! ! ) } :.i.A.E.E.R.E.T.T.E.E.E._._.E.J.i.:.} ) ! E ) ) ) ) ) ! ! ! ) } :.p.F.R.R.R.R.R.R.E.E.E.E._._.J.i.:.o.) ! E ) ) ! ",
"} } o.} } o.O.8.A.T.[._._.E.E._._.[.}.}.@X[._.b.7.O.o.} } } o.} } | } } } } #.w.n.R.{.$X{.{.{.{.}.[.[.@X}.}.E.A.8.O.o.[ } } } } ",
"1.1.1.:.:.2.8.b.T._.{._.T.A.A.A._.[.}.$X@X}._.T.j.7.1.:.1.1.2.1.1.1.1.1.1.1.w.n.F.{.{.$X$X$X+X+X}.@X}.@X}.}._.J.b.7.1.:.1.1.1.2.",
"b.j.b.b.b.j.b.T._.[._.J.j.7.7.d.J._.}.@X@X}.}._.J.A.j.j.b.j.j.j.v.b.b.j.b.b.n.F.R.{.XX@X+X+X{.+X@X}.@X}.@X}.{._.J.A.b.j.b.j.b.b.",
"E.E.E.E.E.E.E._.{.{.E.A.7.O.&.7.n._.}.@X}.}.[.[._._.E.E.E.E.E._.R.R.E.E.R.R.R.R.{.{.{.{.{.+X+X{.}.}.}.}.}.}.[.[._.E.E._.E.E.E.E.",
"[.{.}.}.}.}.[.}.@X{.E.b.7.O.O.7.n._.}.}.}.}.{.}.}.}.}.}.[.{.}.}.{.{.{.{.{.{.{.{.{.XX{.XX{.{.{.{.}.}.}.}.}.}.}.}.[.}.}.}.}.}.[.[.",
"@X}.}.@X}.}.@X@X}.}.E.J.i.7.7.d.A._.}.@X}.}.}.}.}.}.@X}.@X}.+X$X@X@X{.@X@X$X$X@X@X{.{.@X+X$X$X+X@X}.}.}.}.@X}.@X}.}.}.@X}.}.@X}.",
"}.}.@X}.@X}.}.@X}.}.{.E.A.A.j.A.T._.}.}.}.}.}.}.}.$X}.$X$X}.+X}.{.$X@X}.$X$X$X+X}.}.+X+X$X$X$X+X}.}.}.}.@X}.}.@X@X}.}.}.}.$X}.+X",
"}.}.}.}.}.}.}.}.}.}.}._._._.R._._.[.}.}.}.}.}.}.}.}.}.}.}.}.}.}.{.{.{.{.{.{.{.{.{.{.{.{.{.{.{.{.}.}.}.}.}.}.}.[.}.}.}.}.}.}.}.}.",
"}.}.}.}.}.}.}.}.}.}.}.}.}.}.}.}.}.}.}.}.}.}.}.}.}.}.}.}.}.}.}.}.{.{.{.[.R.R.R.{.{.{.{.R.T.G.G.F._._.[.[._.E.E.E.[.}.}.}.}.}.}.}.",
"}.}.}.}.}.}.}.}.}.}.}.}.}.}.@X}.}.}.}.}.}.}.}.}.}.}.}.}.}.}.}.}.$X{.{.R.F.n.n.F.R.{.R.n.9.&.&.9.A._.[.R.J.b.b.J.E._.}.}.}.}.}.}.",
"}.}.}.}.}.}.}.}.}.}.}.}.}.}.@X}.}.}.}.}.}.}.}.}.}.}.}.}.}.}.}.}.XX{./.J.p.7.7.p.F.[.T.w.[ G H [ 9.T.Q.T.b.7.7.i.A._.}.}.}.}.}.}.",
"}.}.}.}.}.}.}.}.}.}.}.}.}.}.}.}.}.}.}.}.}.}.}.}.}.}.}.}.}.}.}.+X@XXXR.n.w.#.$.w.F.R.G.&.H M b G &.A.T.A.8.&.O.7.A._.}.$X$X}.}.}.",
"}.}.}.}.}.}.}.}.}.}.}.}.}.}.}.}.}.}.}.}.}.}.}.}.}.}.}.}.}.}.}.}.XX{.R.n.7.O.$.w.F.R.F.&.Y b b Y &.A.T.A.8.O.&.2.j._.}.}.}.}.}.}.",
"}.}.}.}.}.}.}.}.}.}.}.}.}.}.}.}.}.}.}.}.}.}.$X}.}.}.}.}.}.+X}.$X@X{.R.J.i.7.7.k.F._.F.w.[ G J ' 9.T.T.T.d.7.7.u.A._.}.+X}.}.}.}.",
"{.XX{.{.{.XX{.XXXX{.XX{.XX{.XX{.XX{.{.XXXXXXXXXXXXXX{.XXXXXXXXXXXX{.{.E.J.n.n.F.R.{.R.A.9.&.&.9.n.R.{.R.G.n.n.G.T.R.{.+X{.+X{.{.",
"XX{.XXXXXX{.XX{.{.XX{.{.{.XX{.{.{.XX{.{.XX{.{.XX{.{.XX{.XX{.{.XXXX{.{.{.R.R.R.[.{.{.{.R.F.G.G.T.R.{.{.{.{.R.R.{.{.{.{.+X|.{.+X{.",
"{.XXXX{.{.{.XX{.XX{.{.XX{.XX{.XXXX{.{.{./.R././.'.{.{.{./.R././.[.{.{.{.{.{.{.{.{.}.{.{.{.{.{.{.|.{.{.{.{.{.{.{.{.+X{.{.+X{.{.{.",
"{.{.{.XX{.XX{.XXXX{.XX{.XX{.XX{.XXXX/.R.F.n.B.B.R.'.'.R.F.n.B.B.E.[.{.{.$X$X{.@X}.{.$X}.$X$X$X+X+X|.{.+X|.+X+X|.{.{.{.|.{.{.{.+X",
"XX{.XX{.{.{.XX{.{.XX{.XXXX{.XXXXXX{./.F.p.5.7.i.F././.F.p.5.7.p.F._.{.$X}.$X}.}.+X{.}.$X+X$X$X$X|.{.+X{.+X|.+X|.+X{.+X{.{.{.{.+X",
"{.XX{.XXXX{.{.XXXX{.{.{.{.XX{.+XXX{.R.n.5.#.#.w.B.R.R.B.7.$.$.5.n.R.{.}.}.}.}.}.}.}.}.}.{.}.{.}.{.|.{.|.|.{.{.+X{.{.{.{.+X{.{.{.",
"{.XX{.XX{.XX{.XXXX{.XX{.XX{.{.XX+X{.R.n.7.#.$.w.B.R.R.B.w.$.#.w.n.R.{.+X$X}.}.}.}.}.}.}.{.{.}.}.|.|.{.{.{.|.|.{.{.+X{.+X{.{.+X{.",
"XX{.XX{.XX{.XX{.{.XX{.XX{.{.XXXXXXXX/.F.i.5.w.k.F./.'.F.p.5.w.p.F._.{.$X{.}.}.}.}.}.}.}.}.}.}.}.|.{.|.|.|.{.{.|.{.{.{.{.+X+X{.{.",
"{.{.{.XX{.{.XX{.XX{.XX{.{.XX{.XXXX{./.R.F.n.n.F.R.'.'.R.H.n.n.F.R._.{.{.+X{.{.}.}.}.}.}.}.}.}.}.{.{.{.{.}.}.}.}.+X{.+X{.{.{.{.+X",
"{.XXXX{.XX{.{.XX{.{.{.XXXX{.XX{.XX{.{.{.R.R.R.'.{.{.{.'.R.R.R.R.[.{.}.{.}.}.}.}.}.}.}.}.}.}.}.}.+X{.+X+X}.}.}.}.{.{.{.{.{.+X{.{.",
"XX{.XXXXXX{.XX{.{.XX{.{.{.{.{.XX{.{.XXXX{.{.{.XX{.XX{.{.{.{.{.{.}.}.}.}.}.}.}.}.}.}.}.}.}.}.{.}.{.{.}.{.}.}.{.{.+X+X{.+X{.{.{.+X",
"{.XX{.{.{.XX{.XXXXXX+XXXXXXXXX{.{.XXXX{.+XXX+XXX{.XXXX+X+X+X+X+X}.}.}.}.}.}.}.}.}.}.}.}.}.}.}.}.{.+X}.}.}.}.+X{.{.{.{.{.{.+X{.{.",
"{.XXXX{.{.XX{.XXXX+XXX+XXXXX{.XX{.XXXXXXXX+XXXXXXX{.XX{.XXXXXX+X+X{.}.{.}.}.}.}.}.}.}.}.}.}.}.}.{.{.{.+X+X{.{.{.{.{.{.+X+X+X{.{.",
"XX{.{.XXXX{.XX{.XX{.{.{.{.{.XX{.XX{.{.{.{.{.XX{.{.XX{.XX{.XX{.{.}.}.}.}.}.}.}.}.}.}.}.}.}.}.}.}.{.+X{.{.{.{.+X{.{.+X{.{.{.{.+X{.",
"{.XXXX{.XXXX{.'.'.R.R./.{.{.{.XX{.XX{.XXXX{.{.{.XX{.XX{.{.XX{.XX}.}.}.}.}.}.}.}.}.}.}.}.}.}.}.}.{.{.{.+X+X{.{.{.+X{.{.{.+X{.{.{.",
"XX{.{.XX{.{./.R.F.n.n.B.T.'.{.XXXX{.XX{.{.XX{.XX{.XX{.{.XX{.{.+X}.}.}.}.}.}.}.}.}.}.}.}.}.}.}.}.{.+X{.{.{.{.+X{.+X{.+X{.{.{.{.+X",
"{.{.XXXXXX{./.F.p.w.5.p.B./.{.$XXX{.{.XX{.XXXX{.XX{.{.XX{.XX{.{.{.{.}.}.}.}.}.}.}.}.}.}.{.{.{.{.+X+X{.{.+X{.{.{.{.+X}.}.}.}.}.}.",
"{.XX{.XX+X{.R.n.7.#.#.7.n.R.{.+XXXXXXX{.XX{.{.XX{.XXXX{.{.+XXX{.}.+X{.}.}.}.}.}.}.}.}.{.}.{.@X{.{.{.+X{.{.{.{.+X{.{.}.}.}.}.}.}.",
"{.XXXXXXXX{.R.n.7.#.#.5.n.R.{.+XXX{.XX{.{.{.XX{.XX{.{.XX{.{.XX{.+X{.{.{.}.}.{.{.}.@X{.{.}.}.{.@X+X{.{.{.{.+X{.{.{.{.}.}.}.}.}.}.",
"XX{.{.XX+X{./.F.i.7.5.p.F.'.{.{.XXXX{.{.{.XX{.XXXXXXXXXXXX{.XX{.+X$X+X$X}.+X+X{.@X{.$X}.{.@X{.{.{.{.{.+X{.{.+X+X+X{.}.}.}.}.}.}.",
"{.XX{.XXXX{./.R.F.n.n.F.R.'.{.{.XX{.{.XX{.XXXXXXXXXX+XXXXX{.+X+X$X$X$X+X$X{.}.+X{.$X$X{.@X{.{.@X{.}.}.}.}.{.{.{.}.}.{.{.}.}.}.{.",
"{.{.{.XX{.XX{.{.'.R.R./.{.{.XX{.XX{.XX{.XX{.{.{.{.{.{.XXXX{.{.XX{.{.{.{.{.{.}.{.{.{.{.{.{.{.{.{.}.}.}.}.{.+X{.+X}.}.}.+X}.}.{.+X",
"XX{.XX{.XX{.{.{.{.{.{.{.{.XX{.XX{.XX{.{.{.XX{.'./.R.R.'.'.{.{.R.F.G.G.F.R.{.{.{._.R.R.{./.{.{.{.+X+X{.}.{.{.{.{.}.}.{.{.{.+X{.+X",
"{.XX{.XX{.XXXXXXXX$X+XXXXX{.XX{.XX{.XXXXXX{.'.R.F.n.n.F.R.'.R.n.t.&.&.u.n.R.[.R.F.n.n.F.E.[.XXXX{.{.{.}.+X{.+X{.}.}.{.+X{.{.{.{.",
"{.XXXX{.{.XXXXXX{.+X+XXX{.{.XX{.{.XX{.XXXX{./.F.p.5.w.p.F.).T.0.' H H ' w.F.).F.p.7.7.i.J.R.{.@X{.+X}.}.}.}.}.}.}.}.}.}.}.}.}.}.",
"XX{.{.XXXX{.{.{.{.{.{.XX{.XX{.XXXX{.XXXXXX{.R.n.w.#.#.w.G.T.G.&.H n M H &.G.R.F.w.#.O.7.n.R.{.XX$X}.}.}.}.}.}.}.}.}.}.}.}.}.+X{.",
"{.XXXX{.{.XX{.XXXX{.XX{.{.XXXX{.{.XXXXXXXXXXR.n.5.#.#.w.A.R.G.&.Y M b T &.F.R.F.w.:.#.w.n./.{.XX{.{.}.}.}.}.}.}.}.}.}.}.+X{.{.{.",
"XX{.{.{.XX{.{.XX{.XX{.XXXX{.XX{.XX{.{.XXXX{./.F.p.5.9.p.T.).T.t.' Y H ' t.T.'.F.p.7.7.p.F./.XXXX{.+X}.}.}.}.}.}.}.}.}.}.{.{.{.+X",
"{.{.XX{.XX{.XX{.XX{.XX{.{.{.XX{.XX{.XX{.XXXX'.R.F.B.n.F.R.).R.A.t.&.&.t.A.R.{.R.F.n.A.F.R.{.{.{.+X+X{.{.{.}.}.}.}.}.}.}.{.}.}.}.",
"{.XX{.XX{.XX{.XX{.XX{.{.XX{.{.XX{.XX{.XX{.{.{.'./.R./.'.{.{.{.R.T.G.G.T.R.{.{.{.{.R.R._.{.{.+X+X{.{.+X{.{.+X}.}.}.}.}.}.}.}.}.}.",
"{.XXXX{.{.{.{.XXXX{.{.XX{.XXXX{.XX{.{.XXXX{.{.{.{.{.{.XX|.|.|.|.{.{.{.{.|.{.{.{.{.{.{.{.{.{.{.{.}.}.{.{.{.{.{.+X}.}.}.}.}.}.}.}.",
"XX{.{.XXXX{.XX{.XX{.XX{.XX{.{.XX{.{.XX{.XX{.XXXX+X+X+XXX|.|.|.|.$X$X$X$X$X|.|.|.{.$X$X$X{.{.+X{.}.}.}.}.{.+X{.{.}.}.}.}.}.}.}.}."
};
